<svg width="501" height="200" viewBox="0 0 501 200" fill="none" xmlns="http://www.w3.org/2000/svg">
<path d="M63.3728 180.742V186.032H72.0228V189.462H63.3728V199.172H58.3928V177.262H74.0628V180.732H63.3728V180.742ZM99.6928 199.182V177.272H104.673V195.712H115.653V199.182H99.7028H99.6928ZM148.173 190.422V199.182H143.193V190.422L133.603 177.272H139.033L145.763 186.802L152.493 177.272H157.753L148.163 190.422H148.173ZM215.613 180.742V186.032H224.263V189.462H215.613V199.172H210.633V177.262H226.303V180.732H215.613V180.742ZM251.933 199.182V177.272H256.913V199.182H251.933ZM291.963 199.622C287.883 199.622 284.943 198.202 283.273 196.882L284.413 193.372C286.043 194.762 288.613 196.332 291.963 196.332C294.413 196.332 296.293 195.232 296.293 193.302C296.293 191.472 295.153 190.602 291.153 189.652C286.013 188.522 283.973 186.072 283.973 182.932C283.973 179.352 287.153 176.762 292.423 176.762C295.443 176.762 298.133 177.782 299.763 178.912L298.703 182.012C296.993 180.992 294.543 180.112 292.383 180.112C289.973 180.112 288.543 181.062 288.543 182.632C288.543 183.912 289.443 184.862 292.743 185.622C298.453 186.902 300.903 189.052 300.903 192.852C300.903 197.562 296.583 199.612 291.963 199.612V199.622ZM343.993 199.182V189.502H332.443V199.182H327.463V177.272H332.443V185.742H343.993V177.272H348.973V199.182H343.993ZM376.803 199.182V177.272H381.783V199.182H376.803ZM426.873 199.182L414.063 184.722V199.182H409.613V177.272H413.083L425.893 191.732V177.272H430.343V199.182H426.873ZM470.053 199.802C462.993 199.802 457.033 195.312 457.033 188.222C457.033 181.132 463.233 176.792 470.373 176.792C473.593 176.792 477.023 177.632 479.063 179.022V183.072C477.023 181.542 474.493 180.372 470.863 180.372C465.763 180.372 462.213 183.362 462.213 188.402C462.213 193.442 465.683 196.432 470.573 196.432C472.453 196.432 474.043 196.102 475.303 195.522V191.252H470.983V187.962H480.083V197.642C478.693 198.152 474.863 199.792 470.043 199.792L470.053 199.802ZM183.403 129.782C181.123 129.782 180.883 129.892 180.883 131.182C180.883 140.842 188.313 148.562 198.983 148.562C203.783 148.562 207.733 147.172 210.493 143.202C211.693 142.882 213.013 143.952 213.133 144.922C209.053 153.502 200.183 156.722 192.873 156.722C178.963 156.722 169.733 147.492 169.733 135.262C169.733 123.032 178.963 111.442 195.033 111.442C203.903 111.442 213.013 116.592 213.013 125.922C213.013 126.892 212.893 127.532 212.413 128.392C211.693 129.362 208.933 129.782 204.143 129.782H183.403ZM194.433 125.492C197.913 125.492 199.463 125.172 200.303 124.742C201.023 124.312 201.503 123.452 201.503 122.492C201.503 118.632 198.743 115.522 193.593 115.522C185.563 115.522 181.843 122.492 181.843 124.752C181.843 125.182 182.083 125.502 183.523 125.502H194.433V125.492ZM344.883 152.422C346.083 152.852 345.963 155.102 344.643 155.532C339.483 155.322 334.813 155.212 330.013 155.212C324.383 155.212 319.223 155.322 313.953 155.532C312.993 155.102 312.513 153.062 313.713 152.422L316.953 151.882C321.743 151.132 322.103 150.382 322.103 143.082V99.2023H321.863C318.623 105.102 316.943 108.322 314.673 112.612L304.363 131.492C300.283 139.002 294.293 150.912 292.133 155.952C291.653 156.382 289.853 156.382 289.013 155.952C286.973 150.162 281.823 139.642 279.063 134.282L268.753 113.682C266.473 109.172 263.003 102.092 261.563 98.8723H261.323L260.483 117.322C260.243 123.862 259.763 133.412 259.763 142.212C259.763 149.292 259.883 150.902 265.033 151.762L268.983 152.402C269.823 153.042 269.823 155.082 268.863 155.512C264.423 155.302 260.713 155.192 256.273 155.192C252.433 155.192 248.363 155.302 243.683 155.512C242.603 154.972 242.603 152.932 243.323 152.402L245.363 152.192C251.123 151.552 252.073 149.942 252.913 143.392C253.753 136.632 254.353 129.662 254.953 118.502C255.433 111.202 256.153 102.302 256.153 95.7523C256.153 90.7123 254.353 88.5623 249.683 87.8123L245.603 87.1723C244.883 86.4223 245.003 84.3823 246.083 84.0623C249.683 84.2723 252.913 84.3823 257.353 84.3823C261.553 84.3823 265.743 84.3823 270.183 84.0623C270.663 90.5023 273.663 96.0723 276.773 101.872L289.603 126.652C290.563 128.482 293.803 134.592 295.363 137.062C297.283 133.952 299.323 130.192 302.073 125.152L313.223 104.552C317.063 97.4723 320.893 91.1423 322.933 84.0623C326.173 84.2723 329.643 84.3823 332.283 84.3823C337.323 84.3823 341.513 84.2723 344.873 84.0623C346.193 84.4923 346.433 86.5323 345.233 87.1723L341.273 87.7123C336.003 88.4623 334.803 90.1823 334.803 95.8623C334.803 111.742 335.043 127.622 335.883 143.492C336.243 150.682 337.563 151.322 341.393 151.862L344.873 152.402L344.883 152.422ZM361.883 129.782C359.603 129.782 359.363 129.892 359.363 131.182C359.363 140.842 366.793 148.562 377.463 148.562C382.263 148.562 386.213 147.172 388.973 143.202C390.173 142.882 391.493 143.952 391.613 144.922C387.533 153.502 378.663 156.722 371.353 156.722C357.443 156.722 348.213 147.492 348.213 135.262C348.213 123.032 357.443 111.442 373.513 111.442C382.383 111.442 391.493 116.592 391.493 125.922C391.493 126.892 391.373 127.532 390.893 128.392C390.173 129.362 387.413 129.782 382.623 129.782H361.883ZM372.913 125.492C376.393 125.492 377.943 125.172 378.783 124.742C379.503 124.312 379.983 123.452 379.983 122.492C379.983 118.632 377.223 115.522 372.073 115.522C364.043 115.522 360.323 122.492 360.323 124.752C360.323 125.182 360.563 125.502 362.003 125.502H372.913V125.492ZM404.203 126.672C404.203 121.842 404.203 120.562 401.203 118.952L399.763 118.202C399.403 117.772 399.403 116.272 399.883 115.732C405.033 114.232 411.393 111.872 414.983 109.942C415.703 109.942 416.423 110.262 416.663 110.912C416.543 112.952 416.423 114.772 416.423 115.742C416.423 116.492 416.903 117.032 417.623 117.032C421.343 114.672 425.293 111.452 429.373 111.452C433.453 111.452 435.963 113.922 435.963 116.712C435.963 120.892 432.483 122.932 429.253 122.932C428.053 122.932 426.973 122.612 426.013 122.072C423.013 120.252 420.973 120.032 420.253 120.032C417.493 120.032 416.773 122.502 416.773 127.752V142.452C416.773 150.392 417.253 151.572 421.453 152.002L426.123 152.432C426.963 153.182 426.843 155.112 425.883 155.542C418.693 155.332 414.613 155.222 410.183 155.222C406.233 155.222 402.273 155.332 397.713 155.542C396.753 155.112 396.633 153.182 397.473 152.432L399.633 152.112C403.713 151.472 404.193 150.392 404.193 142.452V126.682L404.203 126.672ZM450.363 129.782C448.083 129.782 447.843 129.892 447.843 131.182C447.843 140.842 455.273 148.562 465.943 148.562C470.743 148.562 474.693 147.172 477.453 143.202C478.653 142.882 479.973 143.952 480.093 144.922C476.013 153.502 467.143 156.722 459.833 156.722C445.923 156.722 436.693 147.492 436.693 135.262C436.693 123.032 445.923 111.442 461.993 111.442C470.863 111.442 479.973 116.592 479.973 125.922C479.973 126.892 479.853 127.532 479.373 128.392C478.653 129.362 475.893 129.782 471.103 129.782H450.363ZM461.393 125.492C464.873 125.492 466.423 125.172 467.263 124.742C467.983 124.312 468.463 123.452 468.463 122.492C468.463 118.632 465.703 115.522 460.553 115.522C452.523 115.522 448.803 122.492 448.803 124.752C448.803 125.182 449.043 125.502 450.483 125.502H461.393V125.492ZM499.523 38.2423C498.843 37.5423 497.733 37.5323 497.033 38.2123C486.633 48.4023 473.503 55.4323 459.593 59.6823C442.063 65.1223 423.593 66.8823 405.313 67.6823C364.913 69.0923 324.143 67.1023 284.553 58.5723C226.513 46.8723 174.213 16.3223 115.903 5.00227C94.0528 0.632266 71.3028 -1.90773 49.1228 1.76227C30.6728 4.74227 11.2828 14.2023 3.66282 32.3523C0.672819 39.4523 -0.607181 47.2923 0.272819 54.9523C3.00282 74.9423 22.7528 86.6823 40.6628 91.3423C51.0128 94.1523 61.6228 95.1323 72.2328 94.8323V139.762C72.2328 151.132 71.1528 151.242 65.5228 151.882L60.4828 152.422C59.6428 152.962 59.7628 155.102 60.7228 155.532C68.3928 155.322 74.0328 155.212 79.3028 155.212C84.5728 155.212 89.9728 155.322 96.9228 155.532C97.8828 155.102 98.0028 153.172 97.1628 152.422L92.8428 151.992C87.2128 151.452 86.1328 151.132 86.1328 139.762V93.7623C93.2928 92.8823 100.393 91.5423 107.373 89.9123C108.023 89.7623 108.663 89.6023 109.303 89.4523C113.363 90.5923 114.303 93.2123 114.303 98.5623V142.442C114.303 150.382 113.823 151.562 109.743 152.102L107.103 152.422C106.263 153.172 106.383 155.102 107.343 155.532C112.373 155.322 116.453 155.212 120.293 155.212C124.733 155.212 128.803 155.322 133.003 155.532C133.963 155.102 134.083 153.172 133.243 152.422L131.443 152.212C127.363 151.672 126.893 150.382 126.893 142.452V128.072C126.893 123.892 127.013 122.282 128.333 120.992C129.773 119.592 132.533 117.882 136.483 117.882C143.553 117.882 146.073 122.172 146.073 127.322V142.452C146.073 150.392 145.593 151.682 141.523 152.212L139.723 152.422C138.883 153.172 139.003 155.102 139.963 155.532C144.163 155.322 148.233 155.212 152.193 155.212C156.633 155.212 160.703 155.322 165.743 155.532C166.943 155.102 167.063 153.172 165.983 152.422L163.223 152.102C159.143 151.672 158.663 150.382 158.663 142.442V126.452C158.663 117.332 153.633 111.432 143.323 111.432C137.333 111.432 132.173 113.792 127.983 116.582C127.143 116.582 126.903 116.042 126.903 114.762V94.9123C126.903 91.9823 126.953 88.2223 127.043 84.7723C134.833 82.4723 142.513 79.8523 150.043 76.7423C151.063 76.2623 151.223 75.2923 150.883 74.5423C151.283 74.3623 151.713 74.1123 151.963 74.0023C152.323 73.8223 152.563 73.5023 152.653 73.1423C152.873 72.9223 153.113 72.7123 153.353 72.4923C153.563 72.6523 153.853 72.4023 153.733 72.1723C153.823 72.5523 154.353 72.4923 154.273 72.0923C154.393 72.2823 154.723 72.2123 154.743 71.9823C155.283 72.1623 155.733 72.3123 155.733 72.3123C155.833 72.3523 155.903 72.1923 155.803 72.1423L155.193 71.8123C155.213 71.7623 155.213 71.7023 155.193 71.6423C155.353 71.8923 155.753 71.6923 155.653 71.4123C155.773 71.5923 156.073 71.5423 156.113 71.3223C156.923 71.5923 157.803 71.8823 157.803 71.8823C157.903 71.9223 157.973 71.7623 157.873 71.7123L156.573 71.0123C156.573 71.0123 156.573 70.9723 156.553 70.9523C156.713 71.1923 157.113 71.0023 157.013 70.7223C157.173 70.9623 157.573 70.7723 157.473 70.4923C157.613 70.7123 157.963 70.5823 157.943 70.3323C158.523 70.4923 159.403 70.7323 159.373 70.7223C159.483 70.7523 159.543 70.5923 159.443 70.5523L158.643 70.1523C158.743 70.1223 158.793 70.0223 158.803 69.9223C158.953 70.0423 159.193 69.9223 159.203 69.7423C160.353 70.1323 161.853 70.6423 161.853 70.6423C161.963 70.6823 162.023 70.5223 161.923 70.4723L159.943 69.4923C159.943 69.4923 160.003 69.3923 160.013 69.3323C160.173 69.4523 160.423 69.3323 160.413 69.1323C160.533 69.2223 160.713 69.1823 160.783 69.0523C160.803 69.0623 160.833 69.0723 160.863 69.0823L163.883 69.6523C163.993 69.6723 164.043 69.5123 163.933 69.4723L162.453 68.9023C163.643 68.9123 165.353 68.9323 165.353 68.9323C165.463 68.9323 165.483 68.7623 165.363 68.7423L162.363 68.2923C162.363 68.2923 162.423 68.1923 162.433 68.1323C162.593 68.2523 162.843 68.1323 162.833 67.9323C162.953 68.0223 163.153 67.9723 163.213 67.8223C164.753 67.8823 166.633 67.9623 166.633 67.9623C166.743 67.9623 166.763 67.7923 166.653 67.7723L163.573 67.3223C163.573 67.3223 163.573 67.3223 163.573 67.3123C163.903 67.4223 164.023 67.0523 163.843 66.8223L164.023 66.7523V66.7323C168.013 64.7923 172.253 67.0723 173.443 71.2223C173.963 75.7223 167.853 76.5723 164.583 77.3623C164.473 77.3823 164.493 77.5623 164.613 77.5423C181.873 76.6923 173.653 62.6023 164.573 65.2823C167.293 64.0523 170.103 62.7823 170.103 62.7823C170.203 62.7323 170.143 62.5623 170.033 62.6123L163.373 65.2423C167.773 62.8423 173.923 59.9423 173.893 59.6623C173.793 59.4223 163.903 64.4423 163.773 64.4023C169.133 61.0323 175.633 57.3723 175.583 57.0923C175.463 56.8623 164.473 63.4723 164.343 63.4523C169.293 60.0123 174.983 56.0623 174.983 56.0623C175.173 55.3423 160.163 65.7623 160.013 65.6723C165.323 61.8823 174.103 56.1023 174.023 55.8323C173.893 55.6023 164.623 62.0123 164.483 61.9823C169.443 58.2223 174.243 54.5823 174.253 54.5823C174.403 53.8423 158.963 65.6223 158.833 65.5223C164.943 60.7723 172.763 55.1723 172.683 54.8923C172.533 54.6723 159.753 64.2723 159.623 64.2623C165.923 58.9523 173.693 52.8723 173.603 52.6023C173.443 52.3823 161.023 62.5723 160.893 62.5623C166.093 57.5723 172.213 52.1923 172.113 51.9323C171.953 51.7323 161.803 61.1523 161.673 61.1623C166.923 55.8823 172.153 51.1023 172.053 50.8323C171.873 50.6323 159.963 62.2623 159.823 62.2623C165.283 56.3223 171.333 50.2523 171.223 49.9923C171.043 49.8023 159.603 61.9023 159.463 61.9123C164.683 55.7523 170.483 49.4423 170.363 49.1823C170.183 49.0023 161.023 59.5523 160.893 59.5723C164.923 54.6323 169.143 49.4723 169.143 49.4723C169.133 48.7223 158.153 62.2623 157.993 62.2223C162.873 55.4223 168.703 47.9323 168.553 47.6823C168.353 47.5123 159.163 59.9723 159.033 59.9923C162.853 53.9823 167.363 47.5623 167.193 47.3223C166.973 47.1623 158.493 60.0123 158.353 60.0523C161.083 55.5323 164.713 50.1823 166.203 47.2723C161.623 53.9823 155.163 63.9923 150.803 70.7223C150.503 70.7223 149.373 71.3823 149.093 71.5023C148.173 71.9423 148.003 73.0623 148.483 73.8623C142.193 77.5023 135.223 79.9323 128.273 81.9823C114.183 86.0323 99.5728 88.1623 85.0028 89.5423C59.5228 91.9023 21.2828 88.8423 7.11282 64.3223C1.88282 54.9823 2.95282 43.3623 6.99282 33.7923C11.2228 23.9323 19.5128 16.3923 29.1928 11.8623C55.9428 -0.0977335 87.0128 4.03227 114.983 9.48227C151.123 16.8023 185.283 30.9323 219.803 43.6023C270.163 62.6823 323.973 70.9223 377.693 70.5723C412.553 70.1223 449.413 70.3823 481.133 53.8323C487.743 50.2923 493.943 45.9223 499.473 40.7923C500.203 40.1223 500.233 38.9823 499.543 38.2723L499.523 38.2423Z" fill="#C59F40"/>
</svg>
